<?xml version="1.0" encoding="UTF-8" standalone="no"?>
<!DOCTYPE svg PUBLIC "-//W3C//DTD SVG 1.1//EN" "http://www.w3.org/Graphics/SVG/1.1/DTD/svg11.dtd">
<svg width="100%" height="100%" viewBox="0 0 1046 120" version="1.1" xmlns="http://www.w3.org/2000/svg" xmlns:xlink="http://www.w3.org/1999/xlink" xml:space="preserve" xmlns:serif="http://www.serif.com/" style="fill-rule:evenodd;clip-rule:evenodd;stroke-linejoin:round;stroke-miterlimit:2;">
    <g id="Artboard1" transform="matrix(1,0,0,1,-17.9999,-398)">
        <rect x="18" y="398" width="1045.67" height="119.796" style="fill:none;"/>
        <clipPath id="_clip1">
            <rect x="18" y="398" width="1045.67" height="119.796"/>
        </clipPath>
        <g clip-path="url(#_clip1)">
            <g transform="matrix(1,0,0,1,-784.325,-849.866)">
                <g transform="matrix(4.16667,0,0,4.16667,821.913,1296.15)">
                    <path d="M0.332,6.365C2.151,8.11 4.878,9.491 8.151,9.491C8.795,9.491 9.423,9.388 9.889,9.168C10.221,9.011 10.477,8.807 10.477,8.493C10.477,8.169 10.27,7.951 9.89,7.752C9.342,7.464 8.494,7.247 7.307,7.031C5.178,6.644 2.49,6.191 0.332,5.034C-1.927,3.824 -3.627,1.867 -3.627,-1.516C-3.627,-6.018 0.066,-10.186 7.355,-10.186C11.606,-10.186 15.424,-8.969 18.388,-6.552C18.588,-6.389 18.624,-6.097 18.468,-5.891L14.373,-0.469C14.296,-0.367 14.182,-0.3 14.056,-0.283C13.93,-0.265 13.801,-0.299 13.7,-0.376C11.591,-1.975 8.865,-2.78 6.938,-2.78C5.502,-2.78 5.105,-2.421 5.105,-1.933C5.105,-1.625 5.3,-1.447 5.67,-1.281C6.238,-1.027 7.13,-0.842 8.421,-0.624L8.423,-0.624C10.554,-0.256 13.197,0.246 15.309,1.394C17.523,2.597 19.171,4.492 19.171,7.621C19.171,9.978 18.464,11.935 17.165,13.438C15.248,15.659 12.013,16.897 7.772,16.897C2.239,16.897 -1.536,15.248 -4.302,12.755C-4.482,12.592 -4.513,12.321 -4.374,12.123L-0.393,6.436C-0.313,6.321 -0.186,6.247 -0.047,6.233C0.093,6.22 0.231,6.268 0.332,6.365Z" style="fill:white;fill-rule:nonzero;"/>
                </g>
                <g transform="matrix(4.16667,0,0,4.16667,910.209,1362.66)">
                    <path d="M-0,-25.768L19.184,-25.768C19.449,-25.768 19.664,-25.553 19.664,-25.288L19.664,-18.918C19.664,-18.653 19.449,-18.438 19.184,-18.438L8.139,-18.438L8.139,-16.441L18.919,-16.441C19.184,-16.441 19.399,-16.226 19.399,-15.961L19.399,-9.592C19.399,-9.327 19.184,-9.112 18.919,-9.112L8.139,-9.112L8.139,-6.849L19.184,-6.849C19.449,-6.849 19.664,-6.634 19.664,-6.369L19.664,0C19.664,0.265 19.449,0.48 19.184,0.48L-0,0.48C-0.265,0.48 -0.48,0.265 -0.48,0L-0.48,-25.288C-0.48,-25.553 -0.265,-25.768 -0,-25.768Z" style="fill:white;fill-rule:nonzero;"/>
                </g>
                <g transform="matrix(4.16667,0,0,4.16667,0,-1646.72)">
                    <path d="M249.183,696.962L249.183,722.25C249.183,722.515 248.968,722.73 248.703,722.73L241.044,722.73C240.779,722.73 240.564,722.515 240.564,722.25L240.564,696.962C240.564,696.697 240.779,696.482 241.044,696.482L248.703,696.482C248.968,696.482 249.183,696.697 249.183,696.962Z" style="fill:white;"/>
                </g>
                <g transform="matrix(4.16667,0,0,4.16667,1050.48,1282.57)">
                    <path d="M-0.381,12.864L8.657,1.087L-0,1.087C-0.265,1.087 -0.48,0.872 -0.48,0.607L-0.48,-6.066C-0.48,-6.331 -0.265,-6.546 0,-6.546L19.753,-6.546C20.018,-6.546 20.233,-6.331 20.233,-6.066L20.233,-0.038C20.233,0.068 20.198,0.171 20.134,0.254L11.059,12.069L20.018,12.069C20.283,12.069 20.498,12.284 20.498,12.549L20.498,19.222C20.498,19.487 20.283,19.702 20.018,19.702L0,19.702C-0.265,19.702 -0.48,19.487 -0.48,19.222L-0.48,13.156C-0.48,13.05 -0.445,12.948 -0.381,12.864Z" style="fill:white;fill-rule:nonzero;"/>
                </g>
                <g transform="matrix(4.16667,0,0,4.16667,1148.09,1362.66)">
                    <path d="M-0,-25.768L19.184,-25.768C19.449,-25.768 19.664,-25.553 19.664,-25.288L19.664,-18.918C19.664,-18.653 19.449,-18.438 19.184,-18.438L8.139,-18.438L8.139,-16.441L18.919,-16.441C19.184,-16.441 19.399,-16.226 19.399,-15.961L19.399,-9.592C19.399,-9.327 19.184,-9.112 18.919,-9.112L8.139,-9.112L8.139,-6.849L19.184,-6.849C19.449,-6.849 19.664,-6.634 19.664,-6.369L19.664,0C19.664,0.265 19.449,0.48 19.184,0.48L-0,0.48C-0.265,0.48 -0.48,0.265 -0.48,0L-0.48,-25.288C-0.48,-25.553 -0.265,-25.768 -0,-25.768Z" style="fill:white;fill-rule:nonzero;"/>
                </g>
                <g transform="matrix(4.16667,0,0,4.16667,1279.32,1361.08)">
                    <path d="M-5.11,-12.645C-5.61,-12.658 -6.261,-12.687 -6.634,-12.715L-6.645,-12.716C-7.054,-12.757 -7.369,-12.935 -7.526,-13.105L-7.609,-13.21L-7.678,-13.343L-7.722,-13.573C-7.722,-13.756 -7.612,-14.031 -7.407,-14.278C-7.145,-14.591 -6.747,-14.849 -6.513,-14.882L-6.493,-14.885C-5.771,-14.957 -4.679,-14.996 -4.252,-15L-4.18,-15.082L-4.18,-15.083C-3.564,-16.275 -2.986,-17.352 -2.524,-18.045C-1.928,-18.961 -1.235,-19.361 -0.228,-19.361C-0.172,-19.361 -0.121,-19.357 -0.073,-19.35L0.095,-19.309L0.321,-19.177L0.431,-19.058L0.508,-18.923L0.576,-18.654C0.594,-18.473 0.564,-18.211 0.464,-17.85L0.464,-17.848C0.363,-17.45 -0.168,-15.784 -0.396,-15.036C0.462,-15.021 1.913,-14.958 2.749,-14.925L2.73,-14.925L2.967,-14.877L3.105,-14.8L3.211,-14.705L3.31,-14.573L3.379,-14.428L3.422,-14.271L3.437,-14.104C3.437,-13.922 3.318,-13.588 3.083,-13.307C2.854,-13.034 2.53,-12.822 2.205,-12.792L2.193,-12.791C1.646,-12.755 -0.397,-12.649 -1.216,-12.639C-1.223,-12.627 -1.231,-12.614 -1.238,-12.602C-1.812,-11.332 -3.725,-6.228 -4.855,-3.1C-4.893,-2.983 -4.913,-2.842 -4.923,-2.742C-4.761,-2.787 -4.557,-2.888 -4.326,-3.012C-3.425,-3.492 -2.252,-4.379 -1.667,-4.964C-1.386,-5.246 -0.978,-5.444 -0.713,-5.438L-0.59,-5.425L-0.457,-5.384L-0.326,-5.309L-0.214,-5.202L-0.1,-5L-0.062,-4.847C-0.055,-4.803 -0.051,-4.755 -0.051,-4.701C-0.051,-4.308 -0.135,-4.007 -0.479,-3.516L-0.482,-3.511C-1.448,-2.168 -3.259,-0.678 -4.964,0.295C-6.149,0.971 -7.29,1.39 -8.076,1.39C-8.353,1.39 -8.762,1.192 -9.08,0.887C-9.406,0.576 -9.617,0.17 -9.617,-0.114C-9.617,-0.333 -9.579,-0.685 -9.404,-1.213C-9.401,-1.222 -9.397,-1.232 -9.394,-1.241C-9.244,-1.614 -6.742,-8.421 -5.11,-12.645Z" style="fill:white;fill-rule:nonzero;"/>
                </g>
                <g transform="matrix(4.16667,0,0,4.16667,1339.98,1262.5)">
                    <path d="M-6.88,14.167C-5.451,12.419 -3.833,10.751 -2.522,9.813C-0.731,8.47 0.335,8.203 1.517,8.203C3.733,8.203 4.423,10.364 4.423,11.223C4.423,15.166 1.847,20.321 0.363,22.039L0.353,22.05C-0.552,23.034 -1.613,23.783 -2.398,24.254C-3.333,24.849 -4.073,25.238 -4.625,25.238C-5.292,25.238 -6.045,24.928 -6.33,24.642C-6.818,24.154 -6.849,23.924 -6.849,23.545C-6.849,23.433 -6.778,23.196 -6.618,22.93C-6.356,22.495 -5.876,21.904 -5.664,21.752L-5.723,21.803L-5.541,21.66L-5.35,21.586L-5.144,21.575L-4.941,21.637L-4.941,21.637C-4.396,21.91 -3.791,22.345 -3.109,22.345C-2.987,22.345 -2.922,22.25 -2.817,22.041C-2.806,22.019 -2.793,21.998 -2.779,21.978C-1.599,20.318 0.354,14.009 0.354,11.906C0.354,11.266 0.216,10.831 -0.227,10.831C-0.641,10.831 -1.072,11.057 -1.608,11.498C-2.563,12.284 -3.759,13.716 -5.456,15.949C-6.623,17.532 -9.361,22.26 -10.265,23.953C-10.501,24.423 -10.987,24.783 -11.344,24.952C-11.552,25.051 -11.731,25.087 -11.829,25.087C-12.414,25.087 -12.93,24.711 -13.196,24.247C-13.391,23.906 -13.445,23.525 -13.35,23.214L-13.348,23.21C-11.075,16.049 -8.232,6.879 -6.374,0.773C-6.317,0.569 -6.27,0.387 -6.253,0.224C-6.242,0.127 -6.239,0.041 -6.271,-0.034C-6.306,-0.116 -6.388,-0.171 -6.506,-0.229C-6.645,-0.296 -6.822,-0.352 -7.045,-0.403L-7.055,-0.405C-7.649,-0.554 -7.942,-0.833 -8.074,-1.025L-8.183,-1.247L-8.214,-1.44L-8.2,-1.578L-8.164,-1.702L-8.05,-1.904C-7.9,-2.104 -7.599,-2.319 -7.179,-2.434L-7.176,-2.435C-6.009,-2.745 -2.82,-3.513 -2.199,-3.513L-2.027,-3.488L-1.889,-3.427L-1.767,-3.337L-1.642,-3.191C-1.457,-2.925 -1.356,-2.43 -1.479,-2.082C-2.981,2.637 -5.769,10.842 -6.88,14.167Z" style="fill:white;fill-rule:nonzero;"/>
                </g>
                <g transform="matrix(4.16667,0,0,4.16667,1382.15,1336.59)">
                    <path d="M8.859,-6.71C8.859,-5.292 7.579,-3.622 5.619,-2.538C4.186,-1.725 1.637,-0.948 0.089,-0.522L0.079,-0.519C-0.066,-0.483 -0.139,-0.359 -0.195,-0.21C-0.408,0.399 -0.582,1.431 -0.582,2.427C-0.582,3.153 -0.427,3.61 -0.14,3.875C0.131,4.124 0.501,4.184 0.872,4.184C2.018,4.184 3.327,3.433 4.299,2.53L4.303,2.527C4.846,2.034 5.316,1.833 5.611,1.833L5.731,1.846L5.868,1.893L5.994,1.972L6.093,2.065L6.175,2.176L6.24,2.31L6.281,2.541C6.281,2.837 6.057,3.439 5.714,3.835C4.59,5.198 1.902,7.267 -1.062,7.267C-1.426,7.267 -1.912,7.118 -2.408,6.805C-3.454,6.143 -4.575,4.747 -4.575,2.768C-4.575,-0.021 -2.861,-3.878 -0.347,-6.511L-0.343,-6.515C1.746,-8.644 4.01,-9.579 5.535,-9.579C6.583,-9.579 7.312,-9.292 7.815,-8.898C8.608,-8.277 8.859,-7.37 8.859,-6.71ZM0.638,-2.658C1.953,-3.165 3.35,-3.905 4.318,-4.85C5.003,-5.52 5.473,-6.29 5.473,-7.165C5.473,-7.289 5.463,-7.403 5.436,-7.502C5.411,-7.594 5.37,-7.671 5.27,-7.671C4.636,-7.671 3.895,-7.116 3.166,-6.38C2.116,-5.32 1.131,-3.842 0.638,-2.658Z" style="fill:white;fill-rule:nonzero;"/>
                </g>
                <g transform="matrix(4.16667,0,0,4.16667,1484.63,1285.1)">
                    <path d="M-11.298,-7.153L0,-7.153C8.25,-7.153 14.356,-2.415 14.356,5.952C14.356,14.32 8.248,19.096 0.038,19.096L-11.298,19.096C-11.563,19.096 -11.778,18.881 -11.778,18.616L-11.778,-6.673C-11.778,-6.938 -11.563,-7.153 -11.298,-7.153ZM-0,11.463C3.525,11.463 5.624,8.884 5.624,5.952C5.624,4.38 5.184,3.004 4.258,2.026C3.332,1.047 1.926,0.48 0.038,0.48L-3.16,0.48L-3.16,11.463L-0,11.463Z" style="fill:white;fill-rule:nonzero;"/>
                </g>
                <g transform="matrix(4.16667,0,0,4.16667,1584.62,1297.42)">
                    <path d="M7.378,12.878L-1.616,12.878L-2.498,15.797C-2.559,15.999 -2.745,16.138 -2.957,16.138L-11.26,16.138C-11.417,16.138 -11.564,16.061 -11.654,15.932C-11.744,15.804 -11.765,15.639 -11.71,15.492L-2.384,-9.796C-2.315,-9.985 -2.135,-10.11 -1.934,-10.11L7.696,-10.11C7.897,-10.11 8.077,-9.985 8.146,-9.796L17.473,15.492C17.528,15.639 17.507,15.804 17.417,15.932C17.327,16.061 17.18,16.138 17.023,16.138L8.72,16.138C8.508,16.138 8.322,15.999 8.261,15.797L7.378,12.878ZM0.66,5.548L5.103,5.548L2.881,-1.322L0.66,5.548Z" style="fill:white;fill-rule:nonzero;"/>
                </g>
                <g transform="matrix(4.16667,0,0,4.16667,1643.53,1362.66)">
                    <path d="M-0,-25.768L8.682,-25.768C8.891,-25.768 9.075,-25.633 9.139,-25.435L14.142,-9.837L19.144,-25.435C19.208,-25.633 19.392,-25.768 19.601,-25.768L28.283,-25.768C28.44,-25.768 28.587,-25.691 28.677,-25.562C28.767,-25.434 28.788,-25.269 28.733,-25.122L19.407,0.166C19.338,0.355 19.158,0.48 18.957,0.48L9.327,0.48C9.126,0.48 8.946,0.355 8.877,0.166L-0.45,-25.122C-0.505,-25.269 -0.484,-25.434 -0.394,-25.562C-0.304,-25.691 -0.157,-25.768 -0,-25.768Z" style="fill:white;fill-rule:nonzero;"/>
                </g>
                <g transform="matrix(4.16667,0,0,4.16667,1767.06,1362.66)">
                    <path d="M-0,-25.768L19.184,-25.768C19.449,-25.768 19.664,-25.553 19.664,-25.288L19.664,-18.918C19.664,-18.653 19.449,-18.438 19.184,-18.438L8.139,-18.438L8.139,-16.441L18.919,-16.441C19.184,-16.441 19.399,-16.226 19.399,-15.961L19.399,-9.592C19.399,-9.327 19.184,-9.112 18.919,-9.112L8.139,-9.112L8.139,-6.849L19.184,-6.849C19.449,-6.849 19.664,-6.634 19.664,-6.369L19.664,-0C19.664,0.265 19.449,0.48 19.184,0.48L-0,0.48C-0.265,0.48 -0.48,0.265 -0.48,0L-0.48,-25.288C-0.48,-25.553 -0.265,-25.768 -0,-25.768Z" style="fill:white;fill-rule:nonzero;"/>
                </g>
            </g>
            <g transform="matrix(1,0,0,1,0.999945,0)">
                <g transform="matrix(4.16667,0,0,4.16667,36.5875,446.288)">
                    <path d="M0,6.711C1.896,8.531 4.739,9.971 8.151,9.971C9.592,9.971 10.957,9.479 10.957,8.493C10.957,7.507 9.895,7.014 7.393,6.559C3.222,5.801 -3.147,4.815 -3.147,-1.516C-3.147,-5.801 0.417,-9.706 7.355,-9.706C11.488,-9.706 15.203,-8.53 18.085,-6.18L13.99,-0.758C11.791,-2.426 8.947,-3.26 6.938,-3.26C5.042,-3.26 4.625,-2.578 4.625,-1.933C4.625,-0.948 5.649,-0.606 8.341,-0.151C12.511,0.569 18.691,1.782 18.691,7.621C18.691,13.194 14.559,16.417 7.772,16.417C2.388,16.417 -1.289,14.824 -3.981,12.398L0,6.711Z" style="fill:rgb(0,113,188);fill-rule:nonzero;"/>
                </g>
                <g transform="matrix(4.16667,0,0,4.16667,124.884,512.793)">
                    <path d="M0,-25.288L19.184,-25.288L19.184,-18.918L7.659,-18.918L7.659,-15.961L18.919,-15.961L18.919,-9.592L7.659,-9.592L7.659,-6.369L19.184,-6.369L19.184,0L0,0L0,-25.288Z" style="fill:rgb(0,113,188);fill-rule:nonzero;"/>
                </g>
                <g transform="matrix(4.16667,0,0,4.16667,-785.325,-2496.58)">
                    <rect x="241.044" y="696.962" width="7.659" height="25.288" style="fill:rgb(0,113,188);"/>
                </g>
                <g transform="matrix(4.16667,0,0,4.16667,265.15,432.703)">
                    <path d="M0,13.156L9.63,0.607L0,0.607L0,-6.066L19.753,-6.066L19.753,-0.038L10.085,12.549L20.018,12.549L20.018,19.222L0,19.222L0,13.156Z" style="fill:rgb(0,113,188);fill-rule:nonzero;"/>
                </g>
                <g transform="matrix(4.16667,0,0,4.16667,362.768,512.793)">
                    <path d="M0,-25.288L19.184,-25.288L19.184,-18.918L7.659,-18.918L7.659,-15.961L18.919,-15.961L18.919,-9.592L7.659,-9.592L7.659,-6.369L19.184,-6.369L19.184,0L0,0L0,-25.288Z" style="fill:rgb(0,113,188);fill-rule:nonzero;"/>
                </g>
                <g transform="matrix(4.16667,0,0,4.16667,493.998,511.215)">
                    <path d="M0,-17.971C-0.114,-17.516 -0.834,-15.279 -0.948,-14.862C-0.986,-14.748 -0.91,-14.559 -0.72,-14.559C0.038,-14.559 1.782,-14.483 2.73,-14.445C2.843,-14.445 2.957,-14.293 2.957,-14.104C2.957,-13.876 2.578,-13.308 2.161,-13.27C1.592,-13.232 -0.607,-13.118 -1.327,-13.118C-1.479,-13.118 -1.592,-12.966 -1.668,-12.815C-2.237,-11.564 -4.171,-6.407 -5.308,-3.26C-5.497,-2.692 -5.46,-2.237 -5.08,-2.237C-4.322,-2.237 -2.199,-3.753 -1.327,-4.625C-1.024,-4.929 -0.531,-5.156 -0.531,-4.701C-0.531,-4.398 -0.607,-4.17 -0.872,-3.791C-2.426,-1.63 -6.256,0.91 -8.076,0.91C-8.455,0.91 -9.137,0.266 -9.137,-0.114C-9.137,-0.303 -9.099,-0.606 -8.948,-1.062C-8.796,-1.441 -6.218,-8.455 -4.588,-12.663C-4.474,-12.89 -4.55,-13.118 -4.663,-13.118C-5.118,-13.118 -6.104,-13.156 -6.597,-13.194C-6.976,-13.232 -7.242,-13.421 -7.242,-13.573C-7.242,-13.838 -6.711,-14.369 -6.445,-14.407C-5.687,-14.483 -4.512,-14.521 -4.171,-14.521C-3.981,-14.521 -3.791,-14.786 -3.754,-14.862C-3.147,-16.037 -2.578,-17.099 -2.123,-17.781C-1.63,-18.54 -1.062,-18.881 -0.228,-18.881C0.114,-18.881 0.189,-18.653 0,-17.971" style="fill:rgb(35,42,47);fill-rule:nonzero;"/>
                </g>
                <g transform="matrix(4.16667,0,0,4.16667,554.656,412.637)">
                    <path d="M0,21.725C-0.872,22.673 -1.896,23.393 -2.654,23.848C-3.488,24.379 -4.133,24.758 -4.625,24.758C-5.156,24.758 -5.763,24.531 -5.99,24.303C-6.331,23.962 -6.369,23.81 -6.369,23.545C-6.369,23.317 -5.649,22.332 -5.384,22.142C-5.308,22.066 -5.232,22.028 -5.156,22.066C-4.55,22.37 -3.867,22.825 -3.109,22.825C-2.843,22.825 -2.616,22.711 -2.388,22.256C-1.175,20.55 0.834,14.067 0.834,11.906C0.834,10.92 0.455,10.351 -0.227,10.351C-1.479,10.351 -2.957,11.868 -5.839,15.659C-7.014,17.251 -9.782,22.028 -10.692,23.734C-10.957,24.265 -11.639,24.607 -11.829,24.607C-12.511,24.607 -13.042,23.848 -12.891,23.355C-10.616,16.19 -7.772,7.015 -5.914,0.911C-5.649,-0.037 -5.611,-0.568 -6.938,-0.871C-7.545,-1.023 -7.734,-1.326 -7.734,-1.44C-7.734,-1.629 -7.469,-1.857 -7.052,-1.971C-5.914,-2.274 -2.805,-3.033 -2.199,-3.033C-2.009,-3.033 -1.82,-2.54 -1.934,-2.236C-3.791,3.602 -7.621,14.787 -7.81,15.469C-7.924,15.811 -7.621,15.849 -7.469,15.697C-5.876,13.574 -3.829,11.337 -2.237,10.199C-0.569,8.948 0.417,8.683 1.517,8.683C3.374,8.683 3.943,10.503 3.943,11.223C3.943,15.052 1.441,20.057 0,21.725" style="fill:rgb(35,42,47);fill-rule:nonzero;"/>
                </g>
                <g transform="matrix(4.16667,0,0,4.16667,596.828,486.727)">
                    <path d="M0,-2.312C-0.038,-2.198 0,-1.895 0.152,-1.971C2.73,-2.843 5.953,-4.663 5.953,-7.165C5.953,-7.734 5.763,-8.151 5.27,-8.151C3.45,-8.151 0.683,-4.473 0,-2.312M8.379,-6.71C8.379,-5.421 7.166,-3.942 5.384,-2.957C3.981,-2.16 1.479,-1.402 -0.038,-0.985C-0.341,-0.909 -0.531,-0.682 -0.645,-0.378C-0.872,0.266 -1.062,1.366 -1.062,2.427C-1.062,4.247 -0.114,4.664 0.872,4.664C2.123,4.664 3.564,3.868 4.626,2.882C5.043,2.503 5.384,2.313 5.611,2.313C5.687,2.313 5.801,2.427 5.801,2.541C5.801,2.768 5.611,3.223 5.346,3.527C4.284,4.816 1.744,6.787 -1.062,6.787C-2.047,6.787 -4.095,5.309 -4.095,2.768C-4.095,0.077 -2.426,-3.639 0,-6.179C1.972,-8.189 4.095,-9.099 5.535,-9.099C7.81,-9.099 8.379,-7.62 8.379,-6.71" style="fill:rgb(35,42,47);fill-rule:nonzero;"/>
                </g>
                <g transform="matrix(4.16667,0,0,4.16667,699.308,435.23)">
                    <path d="M0,11.943C3.829,11.943 6.104,9.137 6.104,5.952C6.104,2.54 4.133,0 0.038,0L-3.64,0L-3.64,11.943L0,11.943ZM-11.298,-6.673L0,-6.673C7.962,-6.673 13.876,-2.123 13.876,5.952C13.876,14.028 7.962,18.616 0.038,18.616L-11.298,18.616L-11.298,-6.673Z" style="fill:rgb(0,113,188);fill-rule:nonzero;"/>
                </g>
                <g transform="matrix(4.16667,0,0,4.16667,799.295,447.553)">
                    <path d="M0,6.028L5.763,6.028L2.881,-2.882L0,6.028ZM7.734,12.398L-1.972,12.398L-2.957,15.658L-11.26,15.658L-1.934,-9.63L7.696,-9.63L17.023,15.658L8.72,15.658L7.734,12.398Z" style="fill:rgb(0,113,188);fill-rule:nonzero;"/>
                </g>
                <g transform="matrix(4.16667,0,0,4.16667,858.209,512.793)">
                    <path d="M0,-25.288L8.682,-25.288L14.142,-8.265L19.601,-25.288L28.283,-25.288L18.957,0L9.327,0L0,-25.288Z" style="fill:rgb(0,113,188);fill-rule:nonzero;"/>
                </g>
                <g transform="matrix(4.16667,0,0,4.16667,981.732,512.793)">
                    <path d="M0,-25.288L19.184,-25.288L19.184,-18.918L7.659,-18.918L7.659,-15.961L18.919,-15.961L18.919,-9.592L7.659,-9.592L7.659,-6.369L19.184,-6.369L19.184,0L0,0L0,-25.288Z" style="fill:rgb(0,113,188);fill-rule:nonzero;"/>
                </g>
            </g>
        </g>
    </g>
</svg>
