<svg xmlns="http://www.w3.org/2000/svg" viewBox="0 0 250 27.79"><defs><style>.cls-1{fill:#0071bc;}.cls-2{fill:#232a2f;}</style></defs><g id="Layer_2" data-name="Layer 2"><g id="Layer_1-2" data-name="Layer 1"><path class="cls-1" d="M4,17.82a11.79,11.79,0,0,0,8.15,3.26c1.44,0,2.81-.49,2.81-1.48s-1.06-1.48-3.57-1.93C7.2,16.91.83,15.92.83,9.59.83,5.31,4.4,1.4,11.34,1.4A16.71,16.71,0,0,1,22.07,4.93L18,10.35a12.57,12.57,0,0,0-7-2.5c-1.9,0-2.31.68-2.31,1.33,0,1,1,1.32,3.71,1.78,4.17.72,10.35,1.93,10.35,7.77,0,5.57-4.13,8.8-10.92,8.8-5.38,0-9.06-1.6-11.75-4Z"/><path class="cls-1" d="M25.17,1.78H44.36V8.15H32.83v3H44.09v6.37H32.83V20.7H44.36v6.37H25.17Z"/><path class="cls-1" d="M47.77,1.78h7.66V27.07H47.77Z"/><path class="cls-1" d="M58.84,21,68.47,8.45H58.84V1.78H78.59v6L68.92,20.4h9.93v6.67h-20Z"/><path class="cls-1" d="M82.26,1.78h19.19V8.15H89.92v3h11.26v6.37H89.92V20.7h11.53v6.37H82.26Z"/><path class="cls-2" d="M113.76,8.72c-.11.46-.83,2.69-1,3.11a.24.24,0,0,0,.23.3c.76,0,2.5.08,3.45.12.11,0,.23.15.23.34a1.11,1.11,0,0,1-.8.83c-.57,0-2.77.15-3.49.15-.15,0-.26.15-.34.31-.57,1.25-2.5,6.4-3.64,9.55-.19.57-.15,1,.23,1,.76,0,2.88-1.51,3.75-2.38.31-.31.8-.53.8-.08a1.48,1.48,0,0,1-.34.91c-1.56,2.16-5.39,4.7-7.21,4.7a1.44,1.44,0,0,1-1.06-1,3.12,3.12,0,0,1,.19-.95c.15-.38,2.73-7.39,4.36-11.6.12-.23,0-.46-.07-.46-.46,0-1.44,0-1.94-.07s-.64-.23-.64-.38.53-.8.79-.84c.76-.07,1.94-.11,2.28-.11.19,0,.38-.27.42-.34a30.32,30.32,0,0,1,1.63-2.92,2.08,2.08,0,0,1,1.89-1.1C113.87,7.81,114,8,113.76,8.72Z"/><path class="cls-2" d="M128.32,24.76a11.93,11.93,0,0,1-2.66,2.12,4.55,4.55,0,0,1-2,.91,2.26,2.26,0,0,1-1.36-.45c-.34-.35-.38-.5-.38-.76a4.19,4.19,0,0,1,1-1.41c.08-.07.16-.11.23-.07a4.84,4.84,0,0,0,2,.76c.26,0,.49-.12.72-.57,1.21-1.71,3.22-8.19,3.22-10.35,0-1-.38-1.56-1.06-1.56-1.25,0-2.73,1.52-5.61,5.31-1.18,1.59-3.94,6.37-4.85,8.08a1.84,1.84,0,0,1-1.14.87,1.12,1.12,0,0,1-1.06-1.25c2.27-7.17,5.12-16.34,7-22.45.27-.94.31-1.48-1-1.78-.61-.15-.8-.45-.8-.57s.27-.41.69-.53A44.82,44.82,0,0,1,126.12,0c.19,0,.38.49.26.8-1.85,5.83-5.68,17-5.87,17.7-.12.34.19.38.34.23a28.42,28.42,0,0,1,5.23-5.5,5.75,5.75,0,0,1,3.75-1.51,2.54,2.54,0,0,1,2.43,2.54C132.26,18.08,129.76,23.09,128.32,24.76Z"/><path class="cls-2" d="M146.82,14.1c0,1.29-1.22,2.77-3,3.76a28.59,28.59,0,0,1-5.42,2,.89.89,0,0,0-.61.61,9.54,9.54,0,0,0-.41,2.8c0,1.82,1,2.24,1.93,2.24a6.11,6.11,0,0,0,3.75-1.78,1.8,1.8,0,0,1,1-.57.24.24,0,0,1,.19.22,1.86,1.86,0,0,1-.46,1,9.15,9.15,0,0,1-6.4,3.26c-1,0-3-1.48-3-4s1.67-6.41,4.1-8.95c2-2,4.09-2.91,5.53-2.91C146.25,11.72,146.82,13.19,146.82,14.1Zm-8.38,4.4c0,.12,0,.42.15.34,2.58-.87,5.8-2.69,5.8-5.19,0-.57-.19-1-.68-1C141.89,12.66,139.12,16.34,138.44,18.5Z"/><path class="cls-1" d="M151.74,1.78H163c8,0,13.88,4.55,13.88,12.63S171,27.07,163.07,27.07H151.74ZM163,20.4a5.85,5.85,0,0,0,6.11-6c0-3.42-2-6-6.07-6h-3.68v12Z"/><path class="cls-1" d="M194.77,23.81h-9.71l-1,3.26h-8.3L185.1,1.78h9.63l9.32,25.29h-8.3ZM187,17.44h5.76l-2.88-8.91Z"/><path class="cls-1" d="M201.17,1.78h8.68l5.46,17,5.46-17h8.68l-9.32,25.29H210.5Z"/><path class="cls-1" d="M230.82,1.78H250V8.15H238.47v3h11.27v6.37H238.47V20.7H250v6.37H230.82Z"/></g></g></svg>