<?xml version="1.0" encoding="UTF-8" standalone="no"?>
<!DOCTYPE svg PUBLIC "-//W3C//DTD SVG 1.1//EN" "http://www.w3.org/Graphics/SVG/1.1/DTD/svg11.dtd">
<svg width="100%" height="100%" viewBox="0 0 100 100" version="1.1" xmlns="http://www.w3.org/2000/svg" xmlns:xlink="http://www.w3.org/1999/xlink" xml:space="preserve" xmlns:serif="http://www.serif.com/" style="fill-rule:evenodd;clip-rule:evenodd;stroke-linejoin:round;stroke-miterlimit:2;">
    <g id="Artboard1" transform="matrix(1,0,0,1,-400,-400)">
        <rect x="400" y="400" width="100" height="100" style="fill:none;"/>
        <clipPath id="_clip1">
            <rect x="400" y="400" width="100" height="100"/>
        </clipPath>
        <g clip-path="url(#_clip1)">
            <g>
                <g transform="matrix(1,0,0,1,122.141,-25.1364)">
                    <path d="M280.051,425.112L322.963,425.112C333.462,425.112 342.818,427.082 351.039,430.994C359.364,434.957 365.88,440.704 370.594,448.226C375.293,455.725 377.667,464.667 377.667,475.064C377.667,485.459 375.295,494.423 370.597,501.969C365.882,509.543 359.365,515.316 351.039,519.278C342.817,523.191 333.508,525.16 323.107,525.16L280.051,525.16C278.947,525.16 278.051,524.265 278.051,523.16L278.051,427.112C278.051,426.008 278.947,425.112 280.051,425.112ZM322.963,495.816C327.278,495.816 331.047,494.89 334.26,492.997C337.436,491.127 339.873,488.583 341.57,485.364C343.294,482.093 344.147,478.467 344.147,474.488C344.147,470.704 343.367,467.29 341.782,464.254C340.23,461.278 337.894,458.914 334.79,457.146C331.606,455.333 327.707,454.456 323.107,454.456L311.139,454.456L311.139,495.816L322.963,495.816Z" style="fill:white;fill-rule:nonzero;"/>
                </g>
                <g transform="matrix(1,0,0,1,122.141,-25.1364)">
                    <path d="M280.051,427.112L322.963,427.112C333.139,427.112 342.211,429.008 350.179,432.8C358.147,436.592 364.387,442.088 368.899,449.288C373.411,456.488 375.667,465.08 375.667,475.064C375.667,485.048 373.411,493.664 368.899,500.912C364.387,508.16 358.147,513.68 350.179,517.472C342.211,521.264 333.187,523.16 323.107,523.16L280.051,523.16L280.051,427.112ZM322.963,497.816C327.667,497.816 331.771,496.784 335.275,494.72C338.779,492.656 341.467,489.848 343.339,486.296C345.211,482.744 346.147,478.808 346.147,474.488C346.147,470.36 345.283,466.64 343.555,463.328C341.827,460.016 339.235,457.376 335.779,455.408C332.323,453.44 328.099,452.456 323.107,452.456L309.139,452.456L309.139,497.816L322.963,497.816Z" style="fill:rgb(0,113,188);fill-rule:nonzero;"/>
                </g>
            </g>
        </g>
    </g>
</svg>
